<svg width="32" height="32" viewBox="0 0 32 32" fill="none" xmlns="http://www.w3.org/2000/svg">
<path fill-rule="evenodd" clip-rule="evenodd" d="M16 0C7.16344 0 0 7.16344 0 16C0 24.8366 7.16344 32 16 32C24.8366 32 32 24.8366 32 16C32 7.16344 24.8366 0 16 0ZM7.68113 13.2518H11.3071V24.1462H7.68113V13.2518ZM11.5459 9.8818C11.5224 8.8136 10.7585 8 9.5181 8C8.27768 8 7.46674 8.8136 7.46674 9.8818C7.46674 10.9279 8.25372 11.7649 9.47103 11.7649H9.4942C10.7585 11.7649 11.5459 10.9279 11.5459 9.8818ZM20.2089 12.996C22.595 12.996 24.3838 14.5535 24.3838 17.8998L24.3836 24.1463H20.7578V18.3178C20.7578 16.8538 20.2331 15.8548 18.9205 15.8548C17.9188 15.8548 17.3221 16.5282 17.06 17.1787C16.9641 17.4118 16.9406 17.7366 16.9406 18.0622V24.1466H13.3142C13.3142 24.1466 13.362 14.2744 13.3142 13.2521H16.9406V14.7953C17.4219 14.0535 18.2838 12.996 20.2089 12.996Z" fill="#D65A3D"/>
</svg>
