<svg width="37" height="37" viewBox="0 0 37 37" fill="none" xmlns="http://www.w3.org/2000/svg">
<circle cx="18.5" cy="18.5" r="18.5" fill="#0E0D0A"/>
<path d="M17.2667 27.1333H19.7334C20.4117 27.1333 20.9667 26.5783 20.9667 25.8999C20.9667 25.2216 20.4117 24.6666 19.7334 24.6666H17.2667C16.5884 24.6666 16.0334 25.2216 16.0334 25.8999C16.0334 26.5783 16.5884 27.1333 17.2667 27.1333ZM7.40002 13.5666C7.40002 14.2449 7.95502 14.7999 8.63336 14.7999H28.3667C29.045 14.7999 29.6 14.2449 29.6 13.5666C29.6 12.8883 29.045 12.3333 28.3667 12.3333H8.63336C7.95502 12.3333 7.40002 12.8883 7.40002 13.5666ZM12.3334 20.9666H24.6667C25.345 20.9666 25.9 20.4116 25.9 19.7333C25.9 19.0549 25.345 18.4999 24.6667 18.4999H12.3334C11.655 18.4999 11.1 19.0549 11.1 19.7333C11.1 20.4116 11.655 20.9666 12.3334 20.9666Z" fill="#FEFAFF"/>
</svg>
