<svg width="32" height="32" viewBox="0 0 32 32" fill="none" xmlns="http://www.w3.org/2000/svg">
<path fill-rule="evenodd" clip-rule="evenodd" d="M16 2.34146C8.45609 2.34146 2.34146 8.45753 2.34146 16C2.34146 23.5425 8.45609 29.6585 16 29.6585C23.5424 29.6585 29.6585 23.5424 29.6585 16C29.6585 8.45761 23.5424 2.34146 16 2.34146ZM0 16C0 7.16454 7.16277 0 16 0C24.8355 0 32 7.16446 32 16C32 24.8355 24.8355 32 16 32C7.16277 32 0 24.8355 0 16Z" fill="#0E0D0A"/>
<path d="M9 18C7.89649 18 7 17.1031 7 16.0008C7 14.8985 7.89649 14 9 14C10.1035 14 11 14.8985 11 16.0008C11 17.1031 10.1035 18 9 18" fill="#0E0D0A"/>
<path d="M16 18C14.8965 18 14 17.1031 14 16.0008C14 14.8985 14.8965 14 16 14C17.1035 14 18 14.8985 18 16.0008C18 17.1031 17.1035 18 16 18" fill="#0E0D0A"/>
<path d="M23 18C21.8965 18 21 17.1031 21 16.0008C21 14.8985 21.8965 14 23 14C24.1035 14 25 14.8985 25 16.0008C25 17.1031 24.1035 18 23 18" fill="#0E0D0A"/>
</svg>
